<svg width="28" height="28" viewBox="0 0 28 28" fill="none" xmlns="http://www.w3.org/2000/svg">
<path d="M14 0.719971C6.66663 0.719971 0.666626 6.70664 0.666626 14.08C0.666626 20.7466 5.54662 26.28 11.92 27.28V17.9466H8.53329V14.08H11.92V11.1333C11.92 7.78664 13.9066 5.94664 16.96 5.94664C18.4133 5.94664 19.9333 6.19997 19.9333 6.19997V9.4933H18.2533C16.6 9.4933 16.08 10.52 16.08 11.5733V14.08H19.7866L19.1866 17.9466H16.08V27.28C19.2219 26.7838 22.0829 25.1807 24.1465 22.7601C26.2102 20.3394 27.3404 17.2608 27.3333 14.08C27.3333 6.70664 21.3333 0.719971 14 0.719971Z" fill="#FF9900"/>
</svg>
