<svg width="20" height="24" viewBox="0 0 20 24" fill="none" xmlns="http://www.w3.org/2000/svg">
<path d="M10.0001 12C10.6417 12 11.1912 11.7713 11.6486 11.314C12.1059 10.8566 12.3342 10.3075 12.3334 9.66665C12.3334 9.02498 12.1047 8.47548 11.6474 8.01815C11.1901 7.56081 10.641 7.33253 10.0001 7.33331C9.35841 7.33331 8.80891 7.56198 8.35158 8.01931C7.89425 8.47665 7.66597 9.02576 7.66675 9.66665C7.66675 10.3083 7.89541 10.8578 8.35275 11.3151C8.81008 11.7725 9.35919 12.0008 10.0001 12ZM10.0001 23.2291C9.84453 23.2291 9.68897 23.2 9.53341 23.1416C9.37786 23.0833 9.24175 23.0055 9.12508 22.9083C6.28619 20.4 4.16675 18.0713 2.76675 15.9223C1.36675 13.7733 0.666748 11.7659 0.666748 9.89998C0.666748 6.98331 1.60514 4.6597 3.48191 2.92915C5.35869 1.19859 7.53141 0.333313 10.0001 0.333313C12.4695 0.333313 14.6426 1.19859 16.5194 2.92915C18.3962 4.6597 19.3342 6.98331 19.3334 9.89998C19.3334 11.7666 18.6334 13.7745 17.2334 15.9235C15.8334 18.0725 13.714 20.4008 10.8751 22.9083C10.7584 23.0055 10.6223 23.0833 10.4667 23.1416C10.3112 23.2 10.1556 23.2291 10.0001 23.2291Z" fill="#FF9900"/>
</svg>
