<svg width="22" height="22" viewBox="0 0 22 22" fill="none" xmlns="http://www.w3.org/2000/svg">
<path d="M20.3333 11C20.0222 11 19.7449 10.888 19.5015 10.664C19.2581 10.44 19.1177 10.1631 19.0803 9.83333C18.8276 8.025 18.0642 6.48383 16.7902 5.20983C15.5162 3.93583 13.975 3.17283 12.1667 2.92083C11.8361 2.88194 11.5588 2.74583 11.3348 2.5125C11.1108 2.27917 10.9992 1.99722 11 1.66667C11 1.33611 11.1167 1.05883 11.35 0.834833C11.5833 0.610833 11.8556 0.518667 12.1667 0.558333C14.6167 0.830555 16.7069 1.83194 18.4375 3.5625C20.1681 5.29306 21.1694 7.38333 21.4417 9.83333C21.4806 10.1444 21.388 10.4167 21.164 10.65C20.94 10.8833 20.6631 11 20.3333 11ZM15.4625 11C15.2097 11 14.9861 10.9125 14.7917 10.7375C14.5972 10.5625 14.4514 10.3292 14.3542 10.0375C14.1986 9.47361 13.9019 8.97272 13.464 8.53483C13.0261 8.09694 12.5256 7.80061 11.9625 7.64583C11.6708 7.54861 11.4375 7.40278 11.2625 7.20833C11.0875 7.01389 11 6.78055 11 6.50833C11 6.11944 11.1361 5.80328 11.4083 5.55983C11.6806 5.31639 11.9819 5.23394 12.3125 5.3125C13.4014 5.56528 14.3398 6.08561 15.1277 6.8735C15.9156 7.66139 16.4355 8.59939 16.6875 9.6875C16.7653 10.0181 16.6778 10.3194 16.425 10.5917C16.1722 10.8639 15.8514 11 15.4625 11ZM20.275 21.5C17.7667 21.5 15.3213 20.9408 12.939 19.8223C10.5567 18.7039 8.44695 17.2261 6.60983 15.389C4.77272 13.5519 3.29495 11.4422 2.1765 9.05983C1.05806 6.6775 0.499223 4.23256 0.500001 1.725C0.500001 1.375 0.616667 1.08333 0.850001 0.85C1.08333 0.616667 1.375 0.5 1.725 0.5H6.45C6.72222 0.5 6.96528 0.5875 7.17917 0.7625C7.39306 0.9375 7.51944 1.16111 7.55833 1.43333L8.31667 5.51667C8.35556 5.78889 8.3505 6.037 8.3015 6.261C8.2525 6.485 8.14089 6.68411 7.96667 6.85833L5.16667 9.71667C5.98333 11.1167 7.00417 12.4292 8.22917 13.6542C9.45417 14.8792 10.8056 15.9389 12.2833 16.8333L15.025 14.0917C15.2 13.9167 15.4287 13.7856 15.711 13.6985C15.9933 13.6114 16.2702 13.5869 16.5417 13.625L20.5667 14.4417C20.8389 14.5 21.0625 14.6314 21.2375 14.836C21.4125 15.0406 21.5 15.2786 21.5 15.55V20.275C21.5 20.625 21.3833 20.9167 21.15 21.15C20.9167 21.3833 20.625 21.5 20.275 21.5Z" fill="#FF9900"/>
</svg>
