<svg width="70" height="30" viewBox="0 0 70 30" fill="none" xmlns="http://www.w3.org/2000/svg">
<path fill-rule="evenodd" clip-rule="evenodd" d="M21.0603 20.6992C21.9311 22.8961 23.3168 24.8088 25.2175 26.4375C27.9833 28.8075 31.2362 29.995 34.9762 30C34.9841 30 34.9921 30 35 30C37.1128 30 39.0649 29.625 40.8563 28.8751C42.2579 28.2905 43.5658 27.4779 44.78 26.4375C46.6321 24.8505 47.9956 22.9937 48.8705 20.8672C49.3176 19.8017 49.632 18.6793 49.8136 17.5H70V12.5H49.8136C49.6415 11.3825 49.3502 10.3161 48.9397 9.30084C48.0689 7.10395 46.6832 5.19117 44.7825 3.5625C43.4008 2.37858 41.8976 1.48975 40.2729 0.896009C38.6433 0.29867 36.8856 0 35 0C32.8869 0 30.9345 0.375083 29.1429 1.12524C27.7416 1.70986 26.434 2.52228 25.22 3.5625C23.3679 5.1495 22.0044 7.00627 21.1295 9.13281C20.6824 10.1983 20.368 11.3207 20.1864 12.5H0V17.5H20.1864C20.3585 18.6175 20.6498 19.6839 21.0603 20.6992Z" fill="#FF9900"/>
</svg>
